<svg xmlns="http://www.w3.org/2000/svg" viewBox="0 0 256 256">
  <!-- 貝殻本体: 蝶番が上、扇状に広がる形 -->
  <path d="M128 36 C60 60 28 120 36 190 Q60 228 128 232 Q196 228 220 190 C228 120 196 60 128 36Z" fill="#1a9a8a"/>
  <!-- 外縁のハイライト -->
  <path d="M128 36 C60 60 28 120 36 190 Q60 228 128 232" fill="none" stroke="#2dd4bf" stroke-width="3" opacity="0.4"/>
  <!-- 放射状の筋（左側） -->
  <path d="M128 44 Q72 130 42 200" fill="none" stroke="#0d6b60" stroke-width="2.5" opacity="0.7"/>
  <path d="M128 44 Q82 120 58 185" fill="none" stroke="#0d6b60" stroke-width="2" opacity="0.6"/>
  <path d="M128 44 Q92 115 74 170" fill="none" stroke="#0d6b60" stroke-width="1.5" opacity="0.5"/>
  <path d="M128 44 Q102 110 90 155" fill="none" stroke="#0d6b60" stroke-width="1.5" opacity="0.4"/>
  <path d="M128 44 Q112 105 106 145" fill="none" stroke="#0d6b60" stroke-width="1" opacity="0.3"/>
  <!-- 放射状の筋（右側） -->
  <path d="M128 44 Q184 130 214 200" fill="none" stroke="#0d6b60" stroke-width="2.5" opacity="0.7"/>
  <path d="M128 44 Q174 120 198 185" fill="none" stroke="#0d6b60" stroke-width="2" opacity="0.6"/>
  <path d="M128 44 Q164 115 182 170" fill="none" stroke="#0d6b60" stroke-width="1.5" opacity="0.5"/>
  <path d="M128 44 Q154 110 166 155" fill="none" stroke="#0d6b60" stroke-width="1.5" opacity="0.4"/>
  <path d="M128 44 Q144 105 150 145" fill="none" stroke="#0d6b60" stroke-width="1" opacity="0.3"/>
  <!-- 成長線（横の弧） -->
  <path d="M68 130 Q128 115 188 130" fill="none" stroke="#14b8a6" stroke-width="1.5" opacity="0.3"/>
  <path d="M52 165 Q128 145 204 165" fill="none" stroke="#14b8a6" stroke-width="1.5" opacity="0.25"/>
  <path d="M42 198 Q128 175 214 198" fill="none" stroke="#14b8a6" stroke-width="1.5" opacity="0.2"/>
  <!-- 蝶番部分のハイライト -->
  <ellipse cx="128" cy="44" rx="12" ry="6" fill="#2dd4bf" opacity="0.5"/>
  <!-- ターミナルプロンプト >_ -->
  <text x="128" y="178" text-anchor="middle" font-family="monospace" font-weight="bold" font-size="64" fill="#e2faf7" opacity="0.9">&gt;_</text>
</svg>
